<mxfile host="app.diagrams.net" agent="Mozilla/5.0 (X11; Linux x86_64) AppleWebKit/537.36 (KHTML, like Gecko) Chrome/132.0.0.0 Safari/537.36" version="26.0.14">
  <diagram name="Page-1" id="SZFi_UBmzwb3c7TnXBTQ">
    <mxGraphModel dx="738" dy="483" grid="1" gridSize="10" guides="1" tooltips="1" connect="1" arrows="1" fold="1" page="1" pageScale="1" pageWidth="850" pageHeight="1100" math="0" shadow="0">
      <root>
        <mxCell id="0" />
        <mxCell id="1" parent="0" />
        <mxCell id="WLJeEuBSF30SqraZXBl0-4" value="" style="endArrow=none;dashed=1;html=1;dashPattern=1 1;strokeWidth=4;rounded=0;strokeColor=#7EA6E0;entryX=1;entryY=0.399;entryDx=0;entryDy=0;entryPerimeter=0;" edge="1" parent="1">
          <mxGeometry width="50" height="50" relative="1" as="geometry">
            <mxPoint x="598" y="731" as="sourcePoint" />
            <mxPoint x="650" y="717.96384" as="targetPoint" />
          </mxGeometry>
        </mxCell>
        <mxCell id="WLJeEuBSF30SqraZXBl0-3" value="" style="endArrow=none;dashed=1;html=1;dashPattern=1 1;strokeWidth=4;rounded=0;strokeColor=#7EA6E0;entryX=0.82;entryY=0.855;entryDx=0;entryDy=0;entryPerimeter=0;" edge="1" parent="1" target="WLJeEuBSF30SqraZXBl0-1">
          <mxGeometry width="50" height="50" relative="1" as="geometry">
            <mxPoint x="598" y="731" as="sourcePoint" />
            <mxPoint x="621.7667961531054" y="757.533554331623" as="targetPoint" />
          </mxGeometry>
        </mxCell>
        <mxCell id="WLJeEuBSF30SqraZXBl0-1" value="" style="ellipse;whiteSpace=wrap;html=1;fillColor=none;strokeWidth=7;fontSize=15;strokeColor=#97D077;" vertex="1" parent="1">
          <mxGeometry x="560" y="680" width="90" height="100.16" as="geometry" />
        </mxCell>
        <mxCell id="hXmGlQrBdRvzctw2T5mR-79" value="&lt;font size=&quot;1&quot;&gt;&lt;b&gt;&lt;i style=&quot;&quot;&gt;&lt;font style=&quot;font-size: 50px;&quot; color=&quot;#6600cc&quot;&gt;{s}&lt;/font&gt;&lt;/i&gt;&lt;/b&gt;&lt;/font&gt;" style="text;html=1;strokeColor=none;fillColor=none;align=center;verticalAlign=middle;whiteSpace=wrap;rounded=0;" parent="1" vertex="1">
          <mxGeometry x="610" y="940" width="65" height="50" as="geometry" />
        </mxCell>
        <mxCell id="hXmGlQrBdRvzctw2T5mR-98" value="" style="group" parent="1" vertex="1" connectable="0">
          <mxGeometry x="555" y="870" width="61" height="96" as="geometry" />
        </mxCell>
        <mxCell id="hXmGlQrBdRvzctw2T5mR-82" value="" style="endArrow=none;html=1;rounded=0;strokeWidth=10;strokeColor=#ff0000;" parent="hXmGlQrBdRvzctw2T5mR-98" edge="1">
          <mxGeometry width="50" height="50" relative="1" as="geometry">
            <mxPoint x="58" y="68" as="sourcePoint" />
            <mxPoint y="40" as="targetPoint" />
          </mxGeometry>
        </mxCell>
        <mxCell id="hXmGlQrBdRvzctw2T5mR-81" value="" style="endArrow=none;html=1;rounded=0;strokeWidth=10;strokeColor=#00ff00;" parent="hXmGlQrBdRvzctw2T5mR-98" edge="1">
          <mxGeometry width="50" height="50" relative="1" as="geometry">
            <mxPoint x="61" y="66" as="sourcePoint" />
            <mxPoint x="3" y="96" as="targetPoint" />
          </mxGeometry>
        </mxCell>
        <mxCell id="hXmGlQrBdRvzctw2T5mR-83" value="" style="endArrow=none;html=1;rounded=0;strokeWidth=10;strokeColor=#0000ff;" parent="hXmGlQrBdRvzctw2T5mR-98" edge="1">
          <mxGeometry width="50" height="50" relative="1" as="geometry">
            <mxPoint x="58" y="70" as="sourcePoint" />
            <mxPoint x="58" as="targetPoint" />
          </mxGeometry>
        </mxCell>
        <mxCell id="hXmGlQrBdRvzctw2T5mR-26" value="" style="endArrow=classic;html=1;rounded=0;strokeWidth=10;strokeColor=#00FFFF;" parent="1" edge="1">
          <mxGeometry width="50" height="50" relative="1" as="geometry">
            <mxPoint x="600" y="731" as="sourcePoint" />
            <mxPoint x="345" y="761" as="targetPoint" />
          </mxGeometry>
        </mxCell>
        <mxCell id="RrNlT7MONJyAGxNPXJez-3" value="&lt;font size=&quot;1&quot; color=&quot;#cc6600&quot;&gt;&lt;b style=&quot;font-size: 40px;&quot;&gt;q&lt;/b&gt;&lt;/font&gt;" style="text;html=1;strokeColor=none;fillColor=none;align=center;verticalAlign=middle;whiteSpace=wrap;rounded=0;" parent="1" vertex="1">
          <mxGeometry x="500" y="833.66" width="30" height="10" as="geometry" />
        </mxCell>
        <mxCell id="RrNlT7MONJyAGxNPXJez-4" value="" style="curved=1;endArrow=classic;html=1;rounded=0;strokeWidth=4;strokeColor=#0000FF;" parent="1" edge="1">
          <mxGeometry width="50" height="50" relative="1" as="geometry">
            <mxPoint x="441.4" y="780" as="sourcePoint" />
            <mxPoint x="411.4" y="730" as="targetPoint" />
            <Array as="points">
              <mxPoint x="451.4" y="760" />
              <mxPoint x="441.4" y="730" />
            </Array>
          </mxGeometry>
        </mxCell>
        <mxCell id="RrNlT7MONJyAGxNPXJez-5" value="" style="shape=image;verticalLabelPosition=bottom;labelBackgroundColor=default;verticalAlign=top;aspect=fixed;imageAspect=0;image=data:image/png,iVBORw0KGgoAAAANSUhEUgAAAVYAAAC6CAYAAAD1XmXOAAAAAXNSR0IArs4c6QAAAARnQU1BAACxjwv8YQUAAAAJcEhZcwAAFiUAABYlAUlSJPAAAAcNSURBVHhe7d1hbts2HMbhABYCw4Zvs7v4JrlITtJ77GPv40lpXW+FK5PSKzrMngf4owOSbvkw/EBTpPLy/fv3izHGmMy8TH79AwCrCCtAmLAChAkrQJiwAoQJK0CYsAKECStAmLAChAkrQJiwAoQJK0CYsAKECStAmLAChAkrQJiwAoQJK0CYsAKECStAmLAChAkrQJiwAoQJK0CYsAKECStAmLAChAkrQJiwAoQJK0CYsAKECStAmLAChAkrQJiwAoQJK0CYsAKECStAmLAChAkrQJiwAoQJK0CYsAKECStAmLAChAkrn87p8NflsD9f9sP7ZRi+XXa7cV7+Hv//vD8fXx9nGL9//3q+HMa/fzyexq/BcwgrT3c6jiHcv12GMY73wrl8xti+vo2hFVnaElae5ng4bxDTP80U2bOVLE0IK839WJ3ei1+b2Q0Cy7aElWZOHyvU+7FrP+MKdv/X+CfkCStNHPfvsw+gnjVWr2xBWNnU9GDqMLTaR104u/fLQVwJElY2M0V1/2k++j+aMa5ODxAirGyir6hex8qVDGFlE4fhXrg6mN2bPVdWE1bijq+ffE/10Qzn8U9YTliJOu3fb4HqeIa9VSvLCSsxp+P5MtyJVJ9jv5XlhJWYbvdV/zS2BFhIWIk4Hd62uQAwvbVquuN/541V01uwpuux+83OyX677B3BYgFhZbVNjlZNh/YrorbZRQSrVhYQVlZLP7DavS6/w59fOVu1Uk9YWSW9Wl0T1at0XBM/E/8vwsoqyYglA5ZdRTshQB1hZZXYSYANbjwlTyk410oNYWWx3LnVbfYxo+dqPcSigrCyWOzj9obRyl2vtR1AOWFlscxH7W2fuidXrbYDKCWsLBILVoO3ScX2Wm0HUEhYWSS1DdDiKFNsy8IrBSkkrCzSwzbA1Wd/yMbXI6xUi10KaLgCTG0H2GelhLBSLXYpoOGeZep0gFtYlBBWqqX2LFuu/uyz0pKwUq2n/dWr3NVb51l5TFipknvpSttAeYBFS8JKlZ7Or/5b8i1cHmDxiLBSpccHV1epkwEeYPGIsFKlp4sBv3MygFaElSqpOD3j43TsZICrrTwgrFQR1nEcueIBYaVKj0etrmL7w8LKA8JKsdyT9c7D6iwrDwgrxXo9w3rlLCutCCvFcmESVr42YaWYsF5HWJknrBTr/eFPLqxuXzFPWCnWf1hda6UNYaVY7BzoFxhhZY6wUkxYb+NaK3OElWLCehthZY6wUkxYbyOszBFWiqXeE/AVRliZI6wUE9bbCCtzhJViwnobYWWOsFJMWG8jrMwRVooJ622ElTnCSjFhvY2wMkdYKSastxFW5ggrxYT1NsLKHGGlmAsCt/GuAOYIK8ViYfV2K744YaWYsN5GWJkjrBQT1uv4DQLME1aK5fZY/WoWvjZhpVjvvz5aWGlFWCkmrNd5zs9PP4SVYr2v+Hr/nV30Q1gpJqw/R1h5QFgp1vtxpdjDt+E8/gl/JqwUE9Yf4zorjwgrVQ7D/djUzjPilHrXgcsBPCKsVOk5rKmfXVh5RFipEnvDVeN9SreuaElYqdLrtVZnWGlJWKnS6yWB2M/tRAAFhJUqvZ5ldSKAloSVKr0euXIigJaElWo9ngzI/Mz2VykjrFSLnQxo9AArtn3hKiuFhJVquQdYbfZZ7a/SmrBSLfcAq82eZWYbwPlVygkri6T2Wbc+vuT8Ks8grCwS22fdeCXojVY8g7CySG6fdbu9S9dYeRZhZZHkedatPmb3ev2W/gkri+W2A8YJf9ROPmBzGoBawspiye2AaZInBGIP1zy0YgFhZbHsdsA0mb3Mz7yS5v9BWFklto/5a76NK9dlH72n0B+GYFQ9tGIhYWWV/Kr1x+zGlWLNA6Pj4XwZwj+HvVWWElZWy69ab7PbvV/24wr2+NvKcQr68TCuUF/fx++5/3fXjb1VlhNWVttq1frMsVplDWElYstVa/NxbpWVhJWY3BGnZ44tANYTVmKSh/KfNX5DAAnCSlT60kDLsa9KirAS1+N+q6iSJKxsoqe4iippwspmprh+9m0BUWULwsqmThvciMqM66psR1jZXP4O/7qpvS4LtYSVZp69ep2uxx6sUmlAWGluCuy+4Qp2N7wJKk0JK0913L99RDb7kGv8940xnV7e8vM/A00JK5/Gxxur9uePN1YNw/TWqjGQ49yP5zg/v74bv3d4HVel01uw7J3yCQgrQJiwAoQJK0CYsAKECStAmLAChAkrQJiwAoQJK0CYsAKECStAmLAChAkrQJiwAoQJK0CYsAKECStAmLAChAkrQJiwAoQJK0CYsAKECStAmLAChAkrQJiwAoQJK0CYsAKECStAmLAChAkrQJiwAoQJK0CYsAKECStAmLAChAkrQNh/wmqMMSYzH2EFIOnl5R8CdMFQWhLVKgAAAABJRU5ErkJggg==;rotation=0;clipPath=inset(19.33% 33.33% 19.33% 33.33%);" parent="1" vertex="1">
          <mxGeometry x="412" y="775" width="26.34" height="26.34" as="geometry" />
        </mxCell>
        <mxCell id="RrNlT7MONJyAGxNPXJez-6" value="&lt;font color=&quot;#0000ff&quot; style=&quot;font-size: 53px;&quot;&gt;.&lt;/font&gt;" style="text;html=1;strokeColor=none;fillColor=none;align=center;verticalAlign=middle;whiteSpace=wrap;rounded=0;" parent="1" vertex="1">
          <mxGeometry x="395" y="740" width="60" height="30" as="geometry" />
        </mxCell>
        <mxCell id="RrNlT7MONJyAGxNPXJez-7" value="&lt;font size=&quot;1&quot; color=&quot;#33ffff&quot;&gt;&lt;b style=&quot;font-size: 40px;&quot;&gt;s&lt;/b&gt;&lt;/font&gt;" style="text;html=1;strokeColor=none;fillColor=none;align=center;verticalAlign=middle;whiteSpace=wrap;rounded=0;" parent="1" vertex="1">
          <mxGeometry x="300" y="749.1600000000001" width="60" height="30" as="geometry" />
        </mxCell>
        <mxCell id="RrNlT7MONJyAGxNPXJez-8" value="" style="triangle;whiteSpace=wrap;html=1;rotation=-90;strokeColor=#33FFFF;fillColor=#33FFFF;" parent="1" vertex="1">
          <mxGeometry x="324.88" y="741.16" width="6.25" height="17" as="geometry" />
        </mxCell>
        <mxCell id="A4AebshEkCelnbcD_m6D-4" value="&lt;font size=&quot;1&quot; color=&quot;#000033&quot;&gt;&lt;b style=&quot;font-size: 40px;&quot;&gt;hs&lt;/b&gt;&lt;/font&gt;" style="text;html=1;strokeColor=none;fillColor=none;align=center;verticalAlign=middle;whiteSpace=wrap;rounded=0;rotation=-7;" parent="1" vertex="1">
          <mxGeometry x="485" y="946" width="30" height="10" as="geometry" />
        </mxCell>
        <mxCell id="A4AebshEkCelnbcD_m6D-7" value="" style="triangle;whiteSpace=wrap;html=1;rotation=-100;strokeColor=#000033;fillColor=#000033;" parent="1" vertex="1">
          <mxGeometry x="505" y="928" width="6.25" height="17" as="geometry" />
        </mxCell>
        <mxCell id="A4AebshEkCelnbcD_m6D-1" value="" style="endArrow=classic;html=1;rounded=0;strokeWidth=6;strokeColor=#000033;" parent="1" edge="1">
          <mxGeometry width="50" height="50" relative="1" as="geometry">
            <mxPoint x="613" y="937" as="sourcePoint" />
            <mxPoint x="533" y="947" as="targetPoint" />
          </mxGeometry>
        </mxCell>
        <mxCell id="aC70VxDfhCRhmieGItRi-1" value="" style="endArrow=classic;html=1;rounded=0;strokeWidth=6;strokeColor=#00994D;" parent="1" edge="1">
          <mxGeometry width="50" height="50" relative="1" as="geometry">
            <mxPoint x="610" y="936" as="sourcePoint" />
            <mxPoint x="670" y="890" as="targetPoint" />
          </mxGeometry>
        </mxCell>
        <mxCell id="RrNlT7MONJyAGxNPXJez-2" value="" style="endArrow=classic;html=1;rounded=0;strokeWidth=6;strokeColor=#CC6600;" parent="1" edge="1">
          <mxGeometry width="50" height="50" relative="1" as="geometry">
            <mxPoint x="610" y="939" as="sourcePoint" />
            <mxPoint x="490" y="749" as="targetPoint" />
          </mxGeometry>
        </mxCell>
        <mxCell id="aC70VxDfhCRhmieGItRi-2" value="&lt;font size=&quot;1&quot;&gt;&lt;b style=&quot;font-size: 40px;&quot;&gt;q x s&lt;/b&gt;&lt;/font&gt;" style="text;html=1;strokeColor=none;fillColor=none;align=center;verticalAlign=middle;whiteSpace=wrap;rounded=0;fontColor=#00994D;" parent="1" vertex="1">
          <mxGeometry x="670" y="870" width="100" height="10" as="geometry" />
        </mxCell>
        <mxCell id="aC70VxDfhCRhmieGItRi-3" value="" style="triangle;whiteSpace=wrap;html=1;rotation=-90;strokeColor=#00994D;fillColor=#00994D;" parent="1" vertex="1">
          <mxGeometry x="750" y="853" width="6.25" height="17" as="geometry" />
        </mxCell>
        <mxCell id="WLJeEuBSF30SqraZXBl0-5" value="" style="verticalLabelPosition=bottom;verticalAlign=top;html=1;shape=mxgraph.basic.arc;startAngle=0.888538601172791;endAngle=0.9434886076224489;rotation=139;strokeColor=#7EA6E0;strokeWidth=3;" vertex="1" parent="1">
          <mxGeometry x="518" y="672.3199999999999" width="105" height="99.84" as="geometry" />
        </mxCell>
        <mxCell id="WLJeEuBSF30SqraZXBl0-11" value="" style="curved=1;endArrow=classic;html=1;rounded=0;entryX=0.168;entryY=0.757;entryDx=0;entryDy=0;entryPerimeter=0;strokeWidth=2;strokeColor=#000000;" edge="1" parent="1" target="WLJeEuBSF30SqraZXBl0-5">
          <mxGeometry width="50" height="50" relative="1" as="geometry">
            <mxPoint x="510" y="670" as="sourcePoint" />
            <mxPoint x="600.4965142015174" y="677.1579229127032" as="targetPoint" />
            <Array as="points">
              <mxPoint x="560.5099999999995" y="649.29" />
            </Array>
          </mxGeometry>
        </mxCell>
        <mxCell id="WLJeEuBSF30SqraZXBl0-12" value="&lt;b style=&quot;&quot;&gt;&lt;font style=&quot;font-size: 20px;&quot;&gt;wheel-valve&amp;nbsp;&lt;/font&gt;&lt;/b&gt;&lt;div&gt;&lt;b style=&quot;&quot;&gt;&lt;font style=&quot;font-size: 20px;&quot;&gt;affordance&lt;/font&gt;&lt;/b&gt;&lt;/div&gt;" style="edgeLabel;html=1;align=center;verticalAlign=middle;resizable=0;points=[];labelBackgroundColor=none;" vertex="1" connectable="0" parent="WLJeEuBSF30SqraZXBl0-11">
          <mxGeometry x="-0.1395" y="7" relative="1" as="geometry">
            <mxPoint x="-44" y="50" as="offset" />
          </mxGeometry>
        </mxCell>
        <mxCell id="WLJeEuBSF30SqraZXBl0-13" value="" style="shape=image;verticalLabelPosition=bottom;labelBackgroundColor=default;verticalAlign=top;aspect=fixed;imageAspect=0;image=data:image/png,iVBORw0KGgoAAAANSUhEUgAAAVYAAAC6CAYAAAD1XmXOAAAAAXNSR0IArs4c6QAAAARnQU1BAACxjwv8YQUAAAAJcEhZcwAAFiUAABYlAUlSJPAAAAcNSURBVHhe7d1hbts2HMbhABYCw4Zvs7v4JrlITtJ77GPv40lpXW+FK5PSKzrMngf4owOSbvkw/EBTpPLy/fv3izHGmMy8TH79AwCrCCtAmLAChAkrQJiwAoQJK0CYsAKECStAmLAChAkrQJiwAoQJK0CYsAKECStAmLAChAkrQJiwAoQJK0CYsAKECStAmLAChAkrQJiwAoQJK0CYsAKECStAmLAChAkrQJiwAoQJK0CYsAKECStAmLAChAkrQJiwAoQJK0CYsAKECStAmLAChAkrQJiwAoQJK0CYsAKECStAmLAChAkrn87p8NflsD9f9sP7ZRi+XXa7cV7+Hv//vD8fXx9nGL9//3q+HMa/fzyexq/BcwgrT3c6jiHcv12GMY73wrl8xti+vo2hFVnaElae5ng4bxDTP80U2bOVLE0IK839WJ3ei1+b2Q0Cy7aElWZOHyvU+7FrP+MKdv/X+CfkCStNHPfvsw+gnjVWr2xBWNnU9GDqMLTaR104u/fLQVwJElY2M0V1/2k++j+aMa5ODxAirGyir6hex8qVDGFlE4fhXrg6mN2bPVdWE1bijq+ffE/10Qzn8U9YTliJOu3fb4HqeIa9VSvLCSsxp+P5MtyJVJ9jv5XlhJWYbvdV/zS2BFhIWIk4Hd62uQAwvbVquuN/541V01uwpuux+83OyX677B3BYgFhZbVNjlZNh/YrorbZRQSrVhYQVlZLP7DavS6/w59fOVu1Uk9YWSW9Wl0T1at0XBM/E/8vwsoqyYglA5ZdRTshQB1hZZXYSYANbjwlTyk410oNYWWx3LnVbfYxo+dqPcSigrCyWOzj9obRyl2vtR1AOWFlscxH7W2fuidXrbYDKCWsLBILVoO3ScX2Wm0HUEhYWSS1DdDiKFNsy8IrBSkkrCzSwzbA1Wd/yMbXI6xUi10KaLgCTG0H2GelhLBSLXYpoOGeZep0gFtYlBBWqqX2LFuu/uyz0pKwUq2n/dWr3NVb51l5TFipknvpSttAeYBFS8JKlZ7Or/5b8i1cHmDxiLBSpccHV1epkwEeYPGIsFKlp4sBv3MygFaElSqpOD3j43TsZICrrTwgrFQR1nEcueIBYaVKj0etrmL7w8LKA8JKsdyT9c7D6iwrDwgrxXo9w3rlLCutCCvFcmESVr42YaWYsF5HWJknrBTr/eFPLqxuXzFPWCnWf1hda6UNYaVY7BzoFxhhZY6wUkxYb+NaK3OElWLCehthZY6wUkxYbyOszBFWiqXeE/AVRliZI6wUE9bbCCtzhJViwnobYWWOsFJMWG8jrMwRVooJ622ElTnCSjFhvY2wMkdYKSastxFW5ggrxYT1NsLKHGGlmAsCt/GuAOYIK8ViYfV2K744YaWYsN5GWJkjrBQT1uv4DQLME1aK5fZY/WoWvjZhpVjvvz5aWGlFWCkmrNd5zs9PP4SVYr2v+Hr/nV30Q1gpJqw/R1h5QFgp1vtxpdjDt+E8/gl/JqwUE9Yf4zorjwgrVQ7D/djUzjPilHrXgcsBPCKsVOk5rKmfXVh5RFipEnvDVeN9SreuaElYqdLrtVZnWGlJWKnS6yWB2M/tRAAFhJUqvZ5ldSKAloSVKr0euXIigJaElWo9ngzI/Mz2VykjrFSLnQxo9AArtn3hKiuFhJVquQdYbfZZ7a/SmrBSLfcAq82eZWYbwPlVygkri6T2Wbc+vuT8Ks8grCwS22fdeCXojVY8g7CySG6fdbu9S9dYeRZhZZHkedatPmb3ev2W/gkri+W2A8YJf9ROPmBzGoBawspiye2AaZInBGIP1zy0YgFhZbHsdsA0mb3Mz7yS5v9BWFklto/5a76NK9dlH72n0B+GYFQ9tGIhYWWV/Kr1x+zGlWLNA6Pj4XwZwj+HvVWWElZWy69ab7PbvV/24wr2+NvKcQr68TCuUF/fx++5/3fXjb1VlhNWVttq1frMsVplDWElYstVa/NxbpWVhJWY3BGnZ44tANYTVmKSh/KfNX5DAAnCSlT60kDLsa9KirAS1+N+q6iSJKxsoqe4iippwspmprh+9m0BUWULwsqmThvciMqM66psR1jZXP4O/7qpvS4LtYSVZp69ep2uxx6sUmlAWGluCuy+4Qp2N7wJKk0JK0913L99RDb7kGv8940xnV7e8vM/A00JK5/Gxxur9uePN1YNw/TWqjGQ49yP5zg/v74bv3d4HVel01uw7J3yCQgrQJiwAoQJK0CYsAKECStAmLAChAkrQJiwAoQJK0CYsAKECStAmLAChAkrQJiwAoQJK0CYsAKECStAmLAChAkrQJiwAoQJK0CYsAKECStAmLAChAkrQJiwAoQJK0CYsAKECStAmLAChAkrQJiwAoQJK0CYsAKECStAmLAChAkrQNh/wmqMMSYzH2EFIOnl5R8CdMFQWhLVKgAAAABJRU5ErkJggg==;rotation=0;clipPath=inset(19.33% 33.33% 19.33% 33.33%);" vertex="1" parent="1">
          <mxGeometry x="619.9999999999999" y="726.82" width="26.34" height="26.34" as="geometry" />
        </mxCell>
        <mxCell id="WLJeEuBSF30SqraZXBl0-14" value="&lt;font style=&quot;color: rgb(234, 107, 102);&quot; size=&quot;1&quot;&gt;&lt;b style=&quot;font-size: 40px;&quot;&gt;b&lt;/b&gt;&lt;/font&gt;" style="text;html=1;strokeColor=none;fillColor=none;align=center;verticalAlign=middle;whiteSpace=wrap;rounded=0;rotation=0;" vertex="1" parent="1">
          <mxGeometry x="638" y="779.17" width="30" height="10" as="geometry" />
        </mxCell>
        <mxCell id="WLJeEuBSF30SqraZXBl0-15" value="&lt;font style=&quot;color: rgb(234, 107, 102);&quot; size=&quot;1&quot;&gt;&lt;b style=&quot;font-size: 40px;&quot;&gt;c&lt;/b&gt;&lt;/font&gt;" style="text;html=1;strokeColor=none;fillColor=none;align=center;verticalAlign=middle;whiteSpace=wrap;rounded=0;" vertex="1" parent="1">
          <mxGeometry x="655" y="707" width="30" height="10" as="geometry" />
        </mxCell>
      </root>
    </mxGraphModel>
  </diagram>
</mxfile>
